<svg xmlns="http://www.w3.org/2000/svg" width="26.871" height="26.876" viewBox="0 0 26.871 26.876">
  <g id="instagram_1_" data-name="instagram (1)" transform="translate(-0.449)">
    <path id="Path_2" data-name="Path 2" d="M27.252,7.9a9.821,9.821,0,0,0-.625-3.261A6.885,6.885,0,0,0,22.695.709a9.846,9.846,0,0,0-3.26-.625C18,.016,17.539,0,13.89,0S9.784.016,8.351.079A9.823,9.823,0,0,0,5.091.7,6.558,6.558,0,0,0,2.707,2.258,6.617,6.617,0,0,0,1.158,4.636,9.847,9.847,0,0,0,.533,7.9C.465,9.335.449,9.792.449,13.441s.016,4.106.079,5.539a9.82,9.82,0,0,0,.625,3.261,6.884,6.884,0,0,0,3.932,3.932,9.847,9.847,0,0,0,3.261.625c1.433.063,1.89.079,5.539.079s4.106-.016,5.539-.079a9.818,9.818,0,0,0,3.26-.625,6.874,6.874,0,0,0,3.933-3.932,9.854,9.854,0,0,0,.625-3.261c.063-1.433.079-1.89.079-5.539S27.315,9.335,27.252,7.9Zm-2.42,10.973a7.367,7.367,0,0,1-.462,2.494,4.458,4.458,0,0,1-2.552,2.552,7.393,7.393,0,0,1-2.494.462c-1.418.063-1.843.079-5.429.079s-4.017-.016-5.429-.079a7.363,7.363,0,0,1-2.494-.462,4.136,4.136,0,0,1-1.544-1,4.178,4.178,0,0,1-1-1.544,7.394,7.394,0,0,1-.462-2.494c-.063-1.418-.079-1.843-.079-5.429s.016-4.017.079-5.429a7.363,7.363,0,0,1,.462-2.494A4.085,4.085,0,0,1,4.434,3.985a4.172,4.172,0,0,1,1.544-1A7.4,7.4,0,0,1,8.472,2.52c1.418-.063,1.843-.079,5.429-.079s4.016.016,5.429.079a7.367,7.367,0,0,1,2.494.462,4.133,4.133,0,0,1,1.544,1,4.178,4.178,0,0,1,1,1.544,7.4,7.4,0,0,1,.462,2.494c.063,1.418.079,1.843.079,5.429S24.895,17.457,24.832,18.875Zm0,0" fill="#fff"/>
    <path id="Path_3" data-name="Path 3" d="M131.853,124.5a6.9,6.9,0,1,0,6.9,6.9A6.906,6.906,0,0,0,131.853,124.5Zm0,11.383a4.479,4.479,0,1,1,4.479-4.479A4.479,4.479,0,0,1,131.853,135.883Zm0,0" transform="translate(-117.963 -117.963)" fill="#fff"/>
    <path id="Path_4" data-name="Path 4" d="M365.673,90.213a1.612,1.612,0,1,1-1.612-1.612A1.612,1.612,0,0,1,365.673,90.213Zm0,0" transform="translate(-342.994 -83.95)" fill="#fff"/>
  </g>
</svg>
